<?xml version="1.0" encoding="UTF-8"?>
<!DOCTYPE svg PUBLIC "-//W3C//DTD SVG 1.1//EN" "http://www.w3.org/Graphics/SVG/1.1/DTD/svg11.dtd">
<svg version="1.1" xmlns="http://www.w3.org/2000/svg" xmlns:xlink="http://www.w3.org/1999/xlink" x="0" y="0" width="32" height="32" viewBox="0, 0, 64, 64">
  <g id="Background">
    <rect x="0" y="0" width="64" height="64" fill="#000000" fill-opacity="0"/>
  </g>
  <defs>
    <clipPath id="Clip_1">
      <path d="M-5.754,-0.664 L57.79,-0.664 L57.79,55.624 L-5.754,55.624 z M30.814,9.339 Q32.65,9.339 33.511,11.117 Q34.371,12.896 34.371,15.374 Q34.371,17.876 33.511,19.654 Q32.65,21.433 30.814,21.433 Q28.955,21.433 28.106,19.654 Q27.257,17.876 27.257,15.374 Q27.257,12.896 28.106,11.117 Q28.955,9.339 30.814,9.339 z M30.814,6.47 Q27.486,6.47 25.582,8.949 Q23.677,11.427 23.677,15.374 Q23.677,19.345 25.582,21.812 Q27.486,24.279 30.814,24.279 Q34.142,24.279 36.035,21.812 Q37.928,19.345 37.928,15.374 Q37.928,11.427 36.035,8.949 Q34.142,6.47 30.814,6.47 z M44.607,27.124 Q46.443,27.124 47.303,28.937 Q48.164,30.75 48.164,33.091 Q48.164,36.075 47.131,37.658 Q46.098,39.242 44.584,39.242 Q43.161,39.242 42.105,37.784 Q41.049,36.327 41.049,33.321 Q41.049,30.613 41.922,28.868 Q42.794,27.124 44.607,27.124 z M44.538,24.279 Q41.325,24.279 39.397,26.734 Q37.469,29.19 37.469,33.183 Q37.469,37.383 39.512,39.735 Q41.554,42.087 44.492,42.087 Q47.498,42.087 49.61,39.62 Q51.721,37.153 51.721,32.816 Q51.721,29.052 49.724,26.665 Q47.728,24.279 44.538,24.279 z M51.79,5.414 L48.003,5.414 L23.654,43.166 L27.418,43.166 L51.79,5.414 z M20.716,4.336 L17.113,4.336 Q10.825,4.336 9.012,6.367 Q7.199,8.398 7.199,10.922 Q7.199,12.276 7.544,13.86 L7.957,15.696 L8.347,17.692 L8.622,18.886 Q8.783,19.666 8.783,20.492 Q8.783,22.718 7.326,24.21 Q5.868,25.701 2.288,25.701 L0.246,25.701 L0.246,29.259 L2.288,29.259 Q5.914,29.259 7.349,30.773 Q8.783,32.288 8.783,34.422 Q8.783,35.225 8.622,36.075 L8.347,37.291 L7.957,39.287 L7.544,41.123 Q7.199,42.684 7.199,44.038 Q7.199,46.585 9.012,48.605 Q10.825,50.624 17.113,50.624 L20.716,50.624 L20.716,47.067 L17.159,47.067 Q13.763,47.067 12.673,46.092 Q11.583,45.117 11.583,43.717 Q11.583,42.684 12.042,40.55 L12.615,37.933 Q13.074,35.822 13.074,34.514 Q13.074,33.045 12.581,31.909 Q12.088,30.773 11.089,29.695 Q10.091,28.616 7.957,27.492 Q10.091,26.367 11.089,25.288 Q12.088,24.21 12.581,23.074 Q13.074,21.938 13.074,20.469 Q13.074,19.161 12.615,17.05 L12.042,14.433 Q11.583,12.299 11.583,11.289 Q11.583,9.867 12.684,8.891 Q13.786,7.916 17.159,7.916 L20.716,7.916 L20.716,4.336 z"/>
    </clipPath>
    <filter id="Shadow_2">
      <feGaussianBlur in="SourceAlpha" stdDeviation="1"/>
      <feOffset dx="3" dy="2" result="offsetblur"/>
      <feFlood flood-color="#555555"/>
      <feComposite in2="offsetblur" operator="in"/>
    </filter>
  </defs>
  <g id="Layer_1">
    <g>
      <path d="M20.716,4.336 L20.716,7.916 L17.159,7.916 Q13.786,7.916 12.684,8.891 Q11.583,9.867 11.583,11.289 Q11.583,12.299 12.042,14.433 L12.615,17.05 Q13.074,19.161 13.074,20.469 Q13.074,21.938 12.581,23.074 Q12.088,24.21 11.089,25.288 Q10.091,26.367 7.957,27.492 Q10.091,28.616 11.089,29.695 Q12.088,30.773 12.581,31.909 Q13.074,33.045 13.074,34.514 Q13.074,35.822 12.615,37.933 L12.042,40.55 Q11.583,42.684 11.583,43.717 Q11.583,45.117 12.673,46.092 Q13.763,47.067 17.159,47.067 L20.716,47.067 L20.716,50.624 L17.113,50.624 Q10.825,50.624 9.012,48.605 Q7.199,46.585 7.199,44.038 Q7.199,42.684 7.544,41.123 L7.957,39.287 L8.347,37.291 L8.622,36.075 Q8.783,35.225 8.783,34.422 Q8.783,32.288 7.349,30.773 Q5.914,29.259 2.288,29.259 L0.246,29.259 L0.246,25.701 L2.288,25.701 Q5.868,25.701 7.326,24.21 Q8.783,22.718 8.783,20.492 Q8.783,19.666 8.622,18.886 L8.347,17.692 L7.957,15.696 L7.544,13.86 Q7.199,12.276 7.199,10.922 Q7.199,8.398 9.012,6.367 Q10.825,4.336 17.113,4.336 L20.716,4.336 z M51.79,5.414 L27.418,43.166 L23.654,43.166 L48.003,5.414 L51.79,5.414 z M44.538,24.279 Q47.728,24.279 49.724,26.665 Q51.721,29.052 51.721,32.816 Q51.721,37.153 49.61,39.62 Q47.498,42.087 44.492,42.087 Q41.554,42.087 39.512,39.735 Q37.469,37.383 37.469,33.183 Q37.469,29.19 39.397,26.734 Q41.325,24.279 44.538,24.279 z M44.607,27.124 Q42.794,27.124 41.922,28.868 Q41.049,30.613 41.049,33.321 Q41.049,36.327 42.105,37.784 Q43.161,39.242 44.584,39.242 Q46.098,39.242 47.131,37.658 Q48.164,36.075 48.164,33.091 Q48.164,30.75 47.303,28.937 Q46.443,27.124 44.607,27.124 z M30.814,6.47 Q34.142,6.47 36.035,8.949 Q37.928,11.427 37.928,15.374 Q37.928,19.345 36.035,21.812 Q34.142,24.279 30.814,24.279 Q27.486,24.279 25.582,21.812 Q23.677,19.345 23.677,15.374 Q23.677,11.427 25.582,8.949 Q27.486,6.47 30.814,6.47 z M30.814,9.339 Q28.955,9.339 28.106,11.117 Q27.257,12.896 27.257,15.374 Q27.257,17.876 28.106,19.654 Q28.955,21.433 30.814,21.433 Q32.65,21.433 33.511,19.654 Q34.371,17.876 34.371,15.374 Q34.371,12.896 33.511,11.117 Q32.65,9.339 30.814,9.339 z" clip-path="url(#Clip_1)" filter="url(#Shadow_2)" fill="rgba(0,0,0,0.75)"/>
      <text transform="matrix(1, 0, 0, 1, 23.608, 32.754)">
        <tspan x="-28.205" y="9.333" font-family="Monaco" font-size="47" fill="#46BF2C">{</tspan>
        <tspan x="0" y="9.333" font-family="Monaco" font-size="47" fill="#B95050">%</tspan>
      </text>
    </g>
  </g>
</svg>
